<?xml version="1.0" standalone="no"?><!DOCTYPE svg PUBLIC "-//W3C//DTD SVG 1.1//EN" "http://www.w3.org/Graphics/SVG/1.1/DTD/svg11.dtd"><svg t="1753677914905" class="icon" viewBox="0 0 1024 1024" version="1.1" xmlns="http://www.w3.org/2000/svg" p-id="31450" xmlns:xlink="http://www.w3.org/1999/xlink" width="200" height="200"><path d="M757.6 53.6H228C114.4 53.6 22.4 145.6 22.4 259.2v529.6c0 113.6 92 205.6 205.6 205.6h529.6c113.6 0 205.6-92 205.6-205.6V259.2c0-113.6-92-205.6-205.6-205.6zM169.6 586.4l-20 44-31.2-52 13.6-119.2h48.8l-11.2 127.2z m99.2 68.8H219.2c-19.2 0-35.2-16-35.2-35.2v-8.8l35.2 5.6V392h48.8l0.8 263.2z m35.2-96l-4.8-100h49.6l12.8 122.4-28 48.8-29.6-71.2z m132.8 96h-78.4l24-50.4h78.4l-24 50.4z m-49.6-68.8l17.6-36 23.2-48H368.8L421.6 392h48.8l-35.2 72.8h10.4l3.2-6.4h48.8l-44 91.2H480l-17.6 36h-75.2v0.8z m247.2 68.8H464.8l24-50.4h48.8V452h-30.4v-42.4H616v42.4h-30.4v153.6h48.8v49.6z m228-110.4V617.6c0 20.8-16.8 37.6-37.6 37.6h-21.6c-19.2 0-35.2-16-35.2-35.2v-8.8h45.6v-66.4H734.4v110.4h-48.8V544.8h-44.8v-42.4h44.8v-51.2H648v-42.4h37.6V392h48.8v17.6h28c16.8 0 31.2 9.6 37.6 24 4 7.2 6.4 16 6.4 24.8v44h17.6c20.8 0 38.4 16.8 38.4 38.4v4z m-20.8-92.8h-24v-24c0-13.6 11.2-24 24-24 13.6 0 24 11.2 24 24 0.8 12.8-10.4 24-24 24z" p-id="31451"></path><path d="M734.4 452h24v51.2h-24z" p-id="31452"></path></svg>