<?xml version="1.0" standalone="no"?><!DOCTYPE svg PUBLIC "-//W3C//DTD SVG 1.1//EN" "http://www.w3.org/Graphics/SVG/1.1/DTD/svg11.dtd"><svg t="1753677931084" class="icon" viewBox="0 0 1024 1024" version="1.1" xmlns="http://www.w3.org/2000/svg" p-id="31751" xmlns:xlink="http://www.w3.org/1999/xlink" width="200" height="200"><path d="M769.365333 479.061333v-55.978666h-46.250666v-65.706667h46.250666v-21.845333h63.317334v21.845333h25.6a70.826667 70.826667 0 0 1 71.68 73.045333v48.64a173.226667 173.226667 0 0 1 31.573333 2.389334 55.296 55.296 0 0 1 43.861333 53.589333v97.28a52.394667 52.394667 0 0 1-37.546666 50.346667 88.917333 88.917333 0 0 1-56.149334-1.024 53.589333 53.589333 0 0 1-32.938666-51.2h63.317333v-60.928a21.845333 21.845333 0 0 0-23.722667-24.917334h-76.629333c-9.386667 0-9.045333 5.290667-9.045333 11.776v129.706667h-63.317334v-143.701333h-65.706666v-63.317334z m63.317334-55.978666v53.589333h34.133333v-44.714667a8.874667 8.874667 0 0 0-8.874667-8.874666zM703.658667 685.909333l-230.912-0.341333 33.792-65.365333h63.317333V423.082667h-41.472v-65.365334l150.869333-0.341333v65.706667h-41.301333v197.12h65.706667v65.706666zM146.432 335.530667h65.706667v292.010666c0 29.696-10.581333 51.2-34.133334 58.368a55.637333 55.637333 0 0 1-72.874666-55.978666h41.301333z" p-id="31752"></path><path d="M421.376 488.789333h-36.352c-22.698667-1.194667-32.426667-14.336-23.381333-34.986666 17.066667-38.058667 35.84-75.264 54.101333-112.64a10.24 10.24 0 0 1 6.997333-5.290667h61.269334c-9.045333 18.602667-17.066667 35.157333-25.429334 51.2-5.461333 10.922667-11.264 21.504-16.213333 32.597333-1.536 3.584-3.925333 10.752 5.802667 13.312 7.338667-9.898667 9.728-10.24 24.234666-10.24h44.714667c-3.072 6.826667-5.12 11.946667-7.509333 17.066667-14.336 29.013333-29.013333 57.856-43.349334 86.869333-6.656 13.312-4.778667 17.066667 9.728 17.066667h25.429334c-9.557333 18.944-17.92 35.84-26.794667 52.394667-1.024 1.877333-5.461333 2.730667-8.362667 2.730666h-57.173333c-24.405333 0-34.133333-14.848-24.746667-37.034666s25.258667-47.274667 37.034667-73.045334zM102.4 423.082667c-2.389333 65.706667-7.168 199.509333-49.152 232.789333l-34.133333-68.266667a15.018667 15.018667 0 0 1 0-12.970666c11.605333-25.088 13.824-87.893333 18.432-152.405334zM256 423.082667c2.389333 65.706667 7.338667 199.509333 49.322667 232.789333l34.133333-68.266667a15.018667 15.018667 0 0 0 0-12.970666c-11.605333-25.088-13.994667-87.893333-18.602667-152.405334zM474.965333 620.202667l-36.522666 65.877333h-73.045334a55.978667 55.978667 0 0 1-26.965333-4.949333l34.133333-65.706667a87.381333 87.381333 0 0 0 24.405334 4.949333zM940.885333 422.741333v-34.133333a32.938667 32.938667 0 0 1 66.048-1.536 32.768 32.768 0 0 1-29.184 35.498667 326.485333 326.485333 0 0 1-36.864 0.170666z" p-id="31753"></path></svg>