<?xml version="1.0" standalone="no"?><!DOCTYPE svg PUBLIC "-//W3C//DTD SVG 1.1//EN" "http://www.w3.org/Graphics/SVG/1.1/DTD/svg11.dtd"><svg t="1753678241318" class="icon" viewBox="0 0 1024 1024" version="1.1" xmlns="http://www.w3.org/2000/svg" p-id="32750" xmlns:xlink="http://www.w3.org/1999/xlink" width="200" height="200"><path d="M649.6 749.6l70.4-47.2h55.2V331.2H616v371.2h17.6z" p-id="32751"></path><path d="M774.4 40.8H249.6C134.4 40.8 40.8 134.4 40.8 249.6v523.2c0 116 93.6 209.6 208.8 209.6h523.2c116 0 208.8-93.6 208.8-208.8V249.6c1.6-115.2-92-208.8-207.2-208.8z m-360 570.4l87.2 99.2c11.2 40.8-4.8 77.6-4.8 77.6L379.2 650.4c-11.2 35.2-24 70.4-41.6 104-28 56-68 67.2-109.6 70.4-41.6 4-28.8-6.4-28.8-6.4 84-68 96-107.2 119.2-151.2 14.4-27.2 24.8-78.4 31.2-119.2H207.2s5.6-38.4 23.2-51.2h124.8c0.8-18.4-1.6-125.6-2.4-161.6h-60c-11.2 55.2-50.4 69.6-59.2 73.6-8.8 4.8-28.8 8.8-25.6 0 3.2-8.8 32.8-56.8 52.8-136s78.4-76 78.4-76C324 224.8 312 287.2 312 287.2h196.8c12.8 0 13.6 48 13.6 48H408.8c-0.8 28-4 103.2-5.6 161.6H520s14.4 19.2 14.4 51.2H400v1.6c-1.6 24.8-8 53.6-16 83.2l30.4-21.6z m412 143.2H719.2l-85.6 57.6-20-57.6h-50.4V277.6h262.4l0.8 476.8z" p-id="32752"></path></svg>